<svg data-v-0dd9719b="" version="1.0" xmlns="http://www.w3.org/2000/svg" xmlns:xlink="http://www.w3.org/1999/xlink" width="100%" height="100%" viewBox="0 0 340.000000 250.000000" preserveAspectRatio="xMidYMid meet" color-interpolation-filters="sRGB" style="margin: auto;"> <rect data-v-0dd9719b="" x="0" y="0" width="100%" height="100%" fill="#ffffff" fill-opacity="1" class="background"></rect> <!----> <g data-v-0dd9719b="" fill="#fcbd05" class="icon-text-wrapper icon-svg-group iconsvg" transform="translate(72.44000244140625,94.44699096679688)"><g class="iconsvg-imagesvg" transform="translate(0,0)"><g><rect fill="#fcbd05" fill-opacity="0" stroke-width="2" x="0" y="0" width="60" height="61.10601894286587" class="image-rect"></rect> <svg x="0" y="0" width="60" height="61.10601894286587" filtersec="colorsb8720346842" class="image-svg-svg primary" style="overflow: visible;"><svg xmlns="http://www.w3.org/2000/svg" viewBox="0 0 98.18999481201172 100"><path fill="#3780ff" opacity=".7" d="M0 59.72h40.28V100H0z"></path><path fill="#fcbd05" opacity=".7" d="M70.36 5.16h24.51v24.51H70.36z"></path><path fill="#38b137" opacity=".7" d="M26.4 17.42h56.21v56.21H26.4z"></path><path fill="#333333" opacity=".7" d="M8.45 0h29.4v29.4H8.45z"></path><path fill="#fa3913" opacity=".7" d="M67.02 55.83h31.17V87H67.02z"></path></svg></svg> <!----></g></g> <g transform="translate(67,13.943008422851562)"><g data-gra="path-name" fill-rule="" class="tp-name iconsvg-namesvg"><g transform="scale(1)"><g><path d="M8.97-6.91L8.97-6.91Q9.18-6.51 9.37-6.09 9.56-5.66 9.74-5.22L9.74-5.22Q9.91-5.67 10.11-6.1 10.31-6.53 10.52-6.94L10.52-6.94 14.39-14.57Q14.5-14.77 14.61-14.88 14.72-14.99 14.85-15.04 14.99-15.09 15.16-15.1 15.33-15.11 15.56-15.11L15.56-15.11 18.23-15.11 18.23 0 15.14 0 15.14-8.69Q15.14-9.32 15.2-10.06L15.2-10.06 11.2-2.29Q11.01-1.93 10.7-1.74 10.38-1.56 9.98-1.56L9.98-1.56 9.5-1.56Q9.09-1.56 8.78-1.74 8.46-1.93 8.28-2.29L8.28-2.29 4.25-10.07Q4.29-9.71 4.31-9.35 4.33-8.99 4.33-8.69L4.33-8.69 4.33 0 1.24 0 1.24-15.11 3.92-15.11Q4.15-15.11 4.32-15.1 4.49-15.09 4.63-15.04 4.76-14.99 4.87-14.88 4.98-14.77 5.08-14.57L5.08-14.57 8.97-6.91ZM24.56-15.11L24.56 0 21.03 0 21.03-15.11 24.56-15.11ZM29.2-15.11L29.2-15.11Q29.43-15.11 29.59-15.09 29.74-15.07 29.87-15.01 29.99-14.95 30.11-14.85 30.22-14.75 30.36-14.57L30.36-14.57 37.54-5.5Q37.5-5.93 37.48-6.34 37.46-6.75 37.46-7.11L37.46-7.11 37.46-15.11 40.55-15.11 40.55 0 38.72 0Q38.32 0 38.04-0.12 37.76-0.25 37.5-0.58L37.5-0.58 30.38-9.58Q30.41-9.19 30.43-8.81 30.45-8.43 30.45-8.1L30.45-8.1 30.45 0 27.36 0 27.36-15.11 29.2-15.11ZM46.87-15.11L46.87 0 43.35 0 43.35-15.11 46.87-15.11Z" transform="translate(-1.2400000095367432, 15.109999656677246)"></path></g> <!----> <!----> <!----> <!----> <!----> <!----> <g data-gra="path-name-1" fill="#38b137" transform="translate(0,18.109999656677246)"><g transform="scale(1)"><path d="M6.57-5.05L4.75-5.05 4.75 0 1.24 0 1.24-15.11 6.57-15.11Q8.17-15.11 9.32-14.73 10.46-14.35 11.21-13.69 11.95-13.03 12.3-12.12 12.65-11.22 12.65-10.17L12.65-10.17Q12.65-9.04 12.29-8.1 11.93-7.16 11.18-6.48 10.43-5.81 9.29-5.43 8.14-5.05 6.57-5.05L6.57-5.05ZM4.75-12.49L4.75-7.69 6.57-7.69Q7.94-7.69 8.55-8.35 9.15-9 9.15-10.17L9.15-10.17Q9.15-10.69 8.99-11.12 8.84-11.54 8.52-11.85 8.2-12.15 7.72-12.32 7.24-12.49 6.57-12.49L6.57-12.49 4.75-12.49ZM17.98-15.11L17.98-2.8 23.58-2.8 23.58 0 14.48 0 14.48-15.11 17.98-15.11ZM33.46-15.11L39.3 0 36.59 0Q36.13 0 35.84-0.21 35.54-0.43 35.43-0.76L35.43-0.76 34.53-3.39 28.79-3.39 27.9-0.76Q27.79-0.47 27.49-0.23 27.19 0 26.76 0L26.76 0 24.02 0 29.87-15.11 33.46-15.11ZM30.99-9.89L29.6-5.78 33.72-5.78 32.34-9.91Q32.2-10.31 32.02-10.84 31.84-11.38 31.66-12L31.66-12Q31.5-11.37 31.32-10.83 31.14-10.29 30.99-9.89L30.99-9.89ZM51.46-15.11L45.98-5.75 45.98 0 42.48 0 42.48-5.75 37-15.11 40.09-15.11Q40.55-15.11 40.82-14.9 41.09-14.68 41.25-14.35L41.25-14.35 43.39-9.96Q43.65-9.43 43.87-8.98 44.08-8.53 44.25-8.1L44.25-8.1Q44.41-8.55 44.62-8.99 44.84-9.44 45.09-9.96L45.09-9.96 47.21-14.35Q47.27-14.49 47.38-14.62 47.49-14.76 47.63-14.87 47.77-14.97 47.95-15.04 48.13-15.11 48.35-15.11L48.35-15.11 51.46-15.11ZM52.5-15.11L62.22-15.11 62.22-12.41 56.02-12.41 56.02-8.89 60.77-8.89 60.77-6.29 56.02-6.29 56.02-2.7 62.22-2.7 62.22 0 52.5 0 52.5-15.11ZM68.61-5.59L67.72-5.59 67.72 0 64.21 0 64.21-15.11 69.13-15.11Q70.77-15.11 71.92-14.77 73.08-14.44 73.81-13.83 74.54-13.23 74.87-12.41 75.21-11.59 75.21-10.63L75.21-10.63Q75.21-9.89 75.01-9.24 74.81-8.59 74.42-8.03 74.03-7.48 73.47-7.04 72.9-6.61 72.17-6.33L72.17-6.33Q72.52-6.15 72.83-5.89 73.13-5.63 73.36-5.26L73.36-5.26 76.58 0 73.4 0Q72.52 0 72.14-0.66L72.14-0.66 69.63-5.05Q69.46-5.34 69.24-5.47 69.02-5.59 68.61-5.59L68.61-5.59ZM67.72-12.49L67.72-8.01 69.13-8.01Q69.85-8.01 70.35-8.19 70.85-8.37 71.17-8.69 71.49-9.01 71.64-9.44 71.78-9.87 71.78-10.37L71.78-10.37Q71.78-11.37 71.14-11.93 70.49-12.49 69.13-12.49L69.13-12.49 67.72-12.49ZM76.35-15.11L88.36-15.11 88.36-12.33 84.1-12.33 84.1 0 80.6 0 80.6-12.33 76.35-12.33 76.35-15.11ZM93.65-15.11L93.65 0 90.12 0 90.12-15.11 93.65-15.11ZM95.41-15.11L107.42-15.11 107.42-12.33 103.17-12.33 103.17 0 99.66 0 99.66-12.33 95.41-12.33 95.41-15.11ZM112.37-15.11L112.37-2.8 117.97-2.8 117.97 0 108.87 0 108.87-15.11 112.37-15.11ZM119.63-15.11L129.36-15.11 129.36-12.41 123.16-12.41 123.16-8.89 127.91-8.89 127.91-6.29 123.16-6.29 123.16-2.7 129.36-2.7 129.36 0 119.63 0 119.63-15.11Z" transform="translate(-1.2400000095367432, 15.109999656677246)"></path></g></g></g></g> <!----></g></g><defs v-gra="od"></defs></svg>